<svg width="360" height="280" viewBox="0 0 360 280" fill="none" xmlns="http://www.w3.org/2000/svg">
<g clip-path="url(#clip0_5218_31196)">
<g filter="url(#filter0_d_5218_31196)">
<path d="M120.659 90.5757C121.121 83.9645 126.856 78.9797 133.467 79.442L269.136 88.9283C275.747 89.3907 280.732 95.1257 280.27 101.737L271.341 229.424C270.913 235.546 265.964 240.272 259.985 240.572C259.994 240.382 260 240.191 260 240V112C260 105.372 254.627 99.9996 248 99.9996H239.439L239.34 98.5757C238.878 91.9645 233.143 86.9797 226.532 87.442L120.358 94.8658L120.659 90.5757Z" fill="white"/>
</g>
<g filter="url(#filter1_d_5218_31196)">
<path d="M226.533 87.442C233.144 86.9797 238.878 91.9645 239.34 98.5758L239.44 99.9996H111.999C105.372 99.9998 99.9996 105.373 99.9994 112V240C99.9994 243.28 101.318 246.252 103.452 248.419L101.467 248.558C94.8559 249.02 89.1219 244.036 88.6596 237.424L79.7309 109.736C79.2688 103.125 84.2535 97.3906 90.8647 96.9283L226.533 87.442Z" fill="white"/>
</g>
<mask id="mask0_5218_31196" style="mask-type:alpha" maskUnits="userSpaceOnUse" x="-40" y="0" width="440" height="280">
<path d="M400 280H-40V0H400V280ZM133.467 79.4424C126.856 78.9803 121.12 83.965 120.658 90.5762L120.357 94.8662L90.8643 96.9287C84.2533 97.3912 79.2684 103.125 79.7305 109.736L88.6592 237.425C89.1217 244.036 94.8558 249.021 101.467 248.559L103.451 248.419C105.627 250.629 108.653 252 111.999 252H247.999C254.435 252 259.686 246.934 259.984 240.572C265.963 240.273 270.912 235.546 271.34 229.425L280.269 101.737C280.731 95.126 275.746 89.391 269.135 88.9287L133.467 79.4424Z" fill="url(#paint0_radial_5218_31196)"/>
</mask>
<g mask="url(#mask0_5218_31196)">
<path opacity="0.06" d="M-40 40H400M1.14441e-05 0V280M360 0V280M-40 80H400M40 0L40 280M320 0V280M80 0V120.389M80 120.389V159.889M80 120.389L120 120.333M80 120.389L-40 120.5M80 159.889L80 199.889M80 159.889L120 159.833M80 159.889L-40 160M80 199.889V239.889M80 199.889L120 199.833M80 199.889L-40 200M80 239.889V280M80 239.889L120 239.833M80 239.889L-40 240M400 120L280 120.111M280 120.111L240 120.167M280 120.111V0M280 120.111V159.611M240 120.167L200 120.222M240 120.167V0M240 120.167V159.667M200 120.222L160 120.278M200 120.222V0M200 120.222V159.722M160 120.278L120 120.333M160 120.278V0M160 120.278V159.778M120 120.333V0M120 120.333V159.833M400 159.5L280 159.611M280 159.611L240 159.667M280 159.611V199.611M240 159.667L200 159.722M240 159.667V199.667M200 159.722L160 159.778M200 159.722L200 199.722M160 159.778L120 159.833M160 159.778V199.778M120 159.833V199.833M400 199.5L280 199.611M280 199.611L240 199.667M280 199.611V239.611M240 199.667L200 199.722M240 199.667V239.667M200 199.722L160 199.778M200 199.722V239.722M160 199.778L120 199.833M160 199.778V239.778M120 199.833V239.833M400 239.5L280 239.611M280 239.611L240 239.667M280 239.611V280M240 239.667L200 239.722M240 239.667V280M200 239.722L160 239.778M200 239.722V280M160 239.778L120 239.833M160 239.778V280M120 239.833V280" stroke="black"/>
</g>
<g filter="url(#filter2_d_5218_31196)">
<rect x="100" y="100" width="160" height="152" rx="12" fill="white"/>
</g>
<rect opacity="0.08" x="100" y="100" width="160" height="152" rx="12" stroke="black"/>
<path opacity="0.06" d="M239.44 99.9996L239.34 98.5757C238.878 91.9645 233.144 86.9797 226.533 87.442L90.8647 96.9283C84.2535 97.3906 79.2688 103.125 79.7309 109.736L88.6596 237.424C89.1219 244.036 94.8559 249.02 101.467 248.558L103.452 248.419" stroke="black"/>
<g opacity="0.06" filter="url(#filter3_d_5218_31196)">
<path d="M260 240C260 240.191 259.994 240.382 259.985 240.572C265.964 240.272 270.913 235.546 271.341 229.424L280.27 101.737C280.732 95.1256 275.747 89.3907 269.136 88.9283L133.467 79.442C126.856 78.9797 121.121 83.9645 120.659 90.5757L120.358 94.8658" stroke="black"/>
</g>
<path opacity="0.08" d="M180.101 144.029C188.08 144.03 195.33 146.102 200.717 149.487C201.868 150.217 202.548 151.499 202.548 152.861V171.243C202.548 172.605 201.868 173.886 200.717 174.617C195.34 178.002 188.08 180.074 180.101 180.074C172.121 180.074 164.871 178.002 159.484 174.617C158.333 173.886 157.652 172.605 157.652 171.243V152.861C157.652 151.499 158.333 150.217 159.484 149.487C164.861 146.102 172.121 144.029 180.101 144.029ZM180.101 147.033C180.164 147.038 188.394 147.646 194.488 153.331C198.383 156.966 199.544 164.005 199.544 164.005V152.861C199.544 152.51 199.374 152.2 199.114 152.029C193.988 148.806 187.239 147.033 180.101 147.033Z" fill="black"/>
<path opacity="0.08" d="M159.685 140.025C155.65 143.759 152.646 148.585 151.154 154.042H149.061C148.711 154.042 148.38 154.082 148.06 154.172V150.037C148.06 144.5 152.546 140.025 158.073 140.025H159.685Z" fill="black"/>
<path opacity="0.08" d="M156.461 180.575C155.629 179.474 154.058 179.244 152.956 180.075C151.845 180.906 151.624 182.467 152.446 183.579C150.874 184.23 149.402 185.071 148.06 186.082V169.932C148.38 170.022 148.711 170.062 149.061 170.062H151.154C152.215 173.937 154.048 177.501 156.461 180.575Z" fill="black"/>
<path opacity="0.08" d="M200.516 140.025C204.551 143.759 207.554 148.585 209.046 154.042H211.139C211.489 154.042 211.82 154.082 212.14 154.172V150.037C212.14 144.5 207.654 140.025 202.128 140.025H200.516Z" fill="black"/>
<path opacity="0.08" d="M203.739 180.575C204.57 179.474 206.142 179.244 207.244 180.075C208.355 180.906 208.575 182.467 207.754 183.579C209.326 184.23 210.798 185.071 212.14 186.082V169.932C211.819 170.022 211.489 170.062 211.138 170.062H209.046C207.985 173.937 206.152 177.501 203.739 180.575Z" fill="black"/>
<path opacity="0.08" d="M207.755 183.579C201.336 191.809 191.334 197.096 180.1 197.096C168.866 197.096 158.863 191.809 152.445 183.579C151.614 182.478 151.845 180.906 152.946 180.075C154.057 179.254 155.629 179.474 156.45 180.585H156.47C161.967 187.594 170.508 192.09 180.1 192.09C189.692 192.09 198.233 187.594 203.729 180.595H203.75C204.57 179.474 206.142 179.254 207.254 180.075C208.355 180.906 208.586 182.478 207.755 183.579Z" fill="black"/>
<path opacity="0.2" d="M157.652 212.676V228.135" stroke="url(#paint1_linear_5218_31196)" stroke-miterlimit="10"/>
<path opacity="0.2" d="M202.548 212.676V228.135" stroke="url(#paint2_linear_5218_31196)" stroke-miterlimit="10"/>
<path opacity="0.08" d="M202.548 206.017V212.675C195.61 213.606 188.04 214.117 180.1 214.117C172.161 214.117 164.591 213.606 157.652 212.675V206.017C157.652 203.804 159.445 202.012 161.658 202.012H198.543C200.756 202.012 202.548 203.804 202.548 206.017Z" fill="black"/>
<g opacity="0.2">
<path d="M180.1 192.09C196.69 192.09 210.138 178.642 210.138 162.052C210.138 145.463 196.69 132.015 180.1 132.015C163.511 132.015 150.063 145.463 150.063 162.052C150.063 178.642 163.511 192.09 180.1 192.09Z" stroke="black" stroke-linecap="round" stroke-linejoin="round"/>
<path d="M202.548 206.017V212.676C195.61 213.607 188.04 214.118 180.1 214.118C172.161 214.118 164.591 213.607 157.652 212.676V206.017C157.652 203.804 159.445 202.012 161.658 202.012H198.543C200.756 202.012 202.548 203.804 202.548 206.017Z" stroke="black" stroke-linecap="round" stroke-linejoin="round"/>
<path d="M220.15 202.103C220.15 203.584 219.65 204.966 218.789 206.057C217.927 207.159 216.706 207.98 215.274 208.33C211.359 209.272 207.094 210.062 202.548 210.673V206.017C202.548 203.804 200.756 202.012 198.543 202.012H161.657C159.445 202.012 157.652 203.804 157.652 206.017V210.673C153.107 210.062 148.841 209.272 144.926 208.33C142.063 207.629 140.05 205.056 140.05 202.103C140.05 197.917 141.332 194.042 143.515 190.828C145.707 187.624 148.801 185.081 152.446 183.58C158.864 191.81 168.866 197.096 180.1 197.096C191.334 197.096 201.337 191.81 207.755 183.58C215.034 186.583 220.15 193.742 220.15 202.103Z" stroke="black" stroke-linecap="round" stroke-linejoin="round"/>
<path d="M150.063 162.053C150.063 164.826 150.443 167.509 151.154 170.063H149.062C148.711 170.063 148.381 170.022 148.06 169.932C146.328 169.492 145.057 167.92 145.057 166.058V158.048C145.057 156.185 146.328 154.613 148.06 154.173C148.381 154.083 148.711 154.043 149.062 154.043H151.154C150.443 156.596 150.063 159.279 150.063 162.053Z" stroke="black" stroke-linecap="round" stroke-linejoin="round"/>
<path d="M159.685 140.025C155.65 143.759 152.646 148.585 151.154 154.042H149.062C148.711 154.042 148.381 154.082 148.061 154.172V150.037C148.061 144.5 152.546 140.025 158.073 140.025H159.685Z" stroke="black" stroke-linecap="round" stroke-linejoin="round"/>
<path d="M156.461 180.575C155.63 179.474 154.058 179.244 152.957 180.075C151.845 180.906 151.625 182.467 152.446 183.579C150.874 184.23 149.402 185.071 148.061 186.082V169.932C148.381 170.022 148.711 170.062 149.062 170.062H151.154C152.216 173.937 154.048 177.501 156.461 180.575Z" stroke="black" stroke-linecap="round" stroke-linejoin="round"/>
<path d="M210.138 162.053C210.138 164.826 209.757 167.509 209.047 170.063H211.139C211.489 170.063 211.82 170.022 212.14 169.932C213.873 169.492 215.144 167.92 215.144 166.058V158.048C215.144 156.185 213.873 154.613 212.14 154.173C211.82 154.083 211.489 154.043 211.139 154.043H209.047C209.757 156.596 210.138 159.279 210.138 162.053Z" stroke="black" stroke-linecap="round" stroke-linejoin="round"/>
<path d="M200.516 140.025C204.551 143.759 207.554 148.585 209.046 154.042H211.139C211.489 154.042 211.82 154.082 212.14 154.172V150.037C212.14 144.5 207.654 140.025 202.128 140.025H200.516Z" stroke="black" stroke-linecap="round" stroke-linejoin="round"/>
<path d="M203.74 180.575C204.571 179.474 206.143 179.244 207.244 180.075C208.356 180.906 208.576 182.467 207.755 183.579C209.327 184.23 210.799 185.071 212.14 186.082V169.932C211.82 170.022 211.489 170.062 211.139 170.062H209.047C207.985 173.937 206.153 177.501 203.74 180.575Z" stroke="black" stroke-linecap="round" stroke-linejoin="round"/>
<path d="M202.548 171.244C202.548 172.606 201.868 173.887 200.716 174.618C195.339 178.003 188.08 180.075 180.1 180.075C172.12 180.075 164.871 178.003 159.485 174.618C158.333 173.887 157.652 172.606 157.652 171.244V152.861C157.652 151.499 158.333 150.218 159.485 149.487C164.862 146.103 172.12 144.03 180.1 144.03C188.08 144.03 195.33 146.103 200.716 149.487C201.868 150.218 202.548 151.499 202.548 152.861V171.244Z" stroke="black" stroke-linecap="round" stroke-linejoin="round"/>
</g>
<g opacity="0.32">
<path d="M157.652 170.062L167.585 165.407L173.913 169.472L184.776 166.288" stroke="black" stroke-linecap="round" stroke-linejoin="round"/>
<path d="M160.436 168.761L169.177 171.694L168.145 174.558" stroke="black" stroke-linecap="round" stroke-linejoin="round"/>
<path d="M170.719 167.419L174.273 161.432L171.48 158.688" stroke="black" stroke-linecap="round" stroke-linejoin="round"/>
<path d="M164.802 166.709L162.969 163.154" stroke="black" stroke-linecap="round" stroke-linejoin="round"/>
</g>
</g>
<defs>
<filter id="filter0_d_5218_31196" x="96.3584" y="67.4122" width="207.941" height="209.16" filterUnits="userSpaceOnUse" color-interpolation-filters="sRGB">
<feFlood flood-opacity="0" result="BackgroundImageFix"/>
<feColorMatrix in="SourceAlpha" type="matrix" values="0 0 0 0 0 0 0 0 0 0 0 0 0 0 0 0 0 0 127 0" result="hardAlpha"/>
<feOffset dy="12"/>
<feGaussianBlur stdDeviation="12"/>
<feComposite in2="hardAlpha" operator="out"/>
<feColorMatrix type="matrix" values="0 0 0 0 0 0 0 0 0 0 0 0 0 0 0 0 0 0 0.08 0"/>
<feBlend mode="normal" in2="BackgroundImageFix" result="effect1_dropShadow_5218_31196"/>
<feBlend mode="normal" in="SourceGraphic" in2="effect1_dropShadow_5218_31196" result="shape"/>
</filter>
<filter id="filter1_d_5218_31196" x="55.7012" y="75.4122" width="207.739" height="209.176" filterUnits="userSpaceOnUse" color-interpolation-filters="sRGB">
<feFlood flood-opacity="0" result="BackgroundImageFix"/>
<feColorMatrix in="SourceAlpha" type="matrix" values="0 0 0 0 0 0 0 0 0 0 0 0 0 0 0 0 0 0 127 0" result="hardAlpha"/>
<feOffset dy="12"/>
<feGaussianBlur stdDeviation="12"/>
<feComposite in2="hardAlpha" operator="out"/>
<feColorMatrix type="matrix" values="0 0 0 0 0 0 0 0 0 0 0 0 0 0 0 0 0 0 0.08 0"/>
<feBlend mode="normal" in2="BackgroundImageFix" result="effect1_dropShadow_5218_31196"/>
<feBlend mode="normal" in="SourceGraphic" in2="effect1_dropShadow_5218_31196" result="shape"/>
</filter>
<filter id="filter2_d_5218_31196" x="76" y="88" width="208" height="200" filterUnits="userSpaceOnUse" color-interpolation-filters="sRGB">
<feFlood flood-opacity="0" result="BackgroundImageFix"/>
<feColorMatrix in="SourceAlpha" type="matrix" values="0 0 0 0 0 0 0 0 0 0 0 0 0 0 0 0 0 0 127 0" result="hardAlpha"/>
<feOffset dy="12"/>
<feGaussianBlur stdDeviation="12"/>
<feComposite in2="hardAlpha" operator="out"/>
<feColorMatrix type="matrix" values="0 0 0 0 0 0 0 0 0 0 0 0 0 0 0 0 0 0 0.08 0"/>
<feBlend mode="normal" in2="BackgroundImageFix" result="effect1_dropShadow_5218_31196"/>
<feBlend mode="normal" in="SourceGraphic" in2="effect1_dropShadow_5218_31196" result="shape"/>
</filter>
<filter id="filter3_d_5218_31196" x="95.8599" y="66.9122" width="208.939" height="210.187" filterUnits="userSpaceOnUse" color-interpolation-filters="sRGB">
<feFlood flood-opacity="0" result="BackgroundImageFix"/>
<feColorMatrix in="SourceAlpha" type="matrix" values="0 0 0 0 0 0 0 0 0 0 0 0 0 0 0 0 0 0 127 0" result="hardAlpha"/>
<feOffset dy="12"/>
<feGaussianBlur stdDeviation="12"/>
<feComposite in2="hardAlpha" operator="out"/>
<feColorMatrix type="matrix" values="0 0 0 0 0 0 0 0 0 0 0 0 0 0 0 0 0 0 0.08 0"/>
<feBlend mode="normal" in2="BackgroundImageFix" result="effect1_dropShadow_5218_31196"/>
<feBlend mode="normal" in="SourceGraphic" in2="effect1_dropShadow_5218_31196" result="shape"/>
</filter>
<radialGradient id="paint0_radial_5218_31196" cx="0" cy="0" r="1" gradientUnits="userSpaceOnUse" gradientTransform="translate(180 140) rotate(90) scale(140 220)">
<stop offset="0.5"/>
<stop offset="1" stop-opacity="0"/>
</radialGradient>
<linearGradient id="paint1_linear_5218_31196" x1="157.566" y1="213" x2="157.566" y2="228.3" gradientUnits="userSpaceOnUse">
<stop/>
<stop offset="1" stop-opacity="0"/>
</linearGradient>
<linearGradient id="paint2_linear_5218_31196" x1="202.635" y1="212.7" x2="202.635" y2="228.3" gradientUnits="userSpaceOnUse">
<stop/>
<stop offset="1" stop-opacity="0"/>
</linearGradient>
<clipPath id="clip0_5218_31196">
<rect width="440" height="280" fill="white" transform="translate(-40)"/>
</clipPath>
</defs>
</svg>


