<svg width="16" height="16" viewBox="0 0 16 16" fill="none" xmlns="http://www.w3.org/2000/svg">
<path d="M13.3332 7.33334C13.1701 6.16015 12.6259 5.07311 11.7843 4.23967C10.9426 3.40623 9.85034 2.87262 8.67562 2.72104C7.50089 2.56947 6.30892 2.80833 5.2833 3.40084C4.25769 3.99335 3.45534 4.90663 2.99984 6.00001M2.6665 3.33334V6.00001H5.33317M2.6665 8.66667C2.82954 9.83985 3.37379 10.9269 4.21541 11.7603C5.05703 12.5938 6.14933 13.1274 7.32406 13.279C8.49878 13.4305 9.69076 13.1917 10.7164 12.5992C11.742 12.0067 12.5443 11.0934 12.9998 10M13.3332 12.6667V10H10.6665" stroke="currentColor" stroke-width="1.1" stroke-linecap="round" stroke-linejoin="round"/>
</svg>
